<?xml version="1.0" standalone="no"?><!DOCTYPE svg PUBLIC "-//W3C//DTD SVG 1.1//EN" "http://www.w3.org/Graphics/SVG/1.1/DTD/svg11.dtd"><svg t="1680264689648" class="icon" viewBox="0 0 1024 1024" version="1.1" xmlns="http://www.w3.org/2000/svg" p-id="1886" width="32" height="32" xmlns:xlink="http://www.w3.org/1999/xlink"><path d="M42.666667 533.333333c-25.6 0-42.666667 17.066667-42.666667 42.666667v170.666667c0 25.6 17.066667 42.666667 42.666667 42.666666s42.666667-17.066667 42.666666-42.666666v-170.666667c0-25.6-17.066667-42.666667-42.666666-42.666667z" p-id="1887" fill="#1296db"></path><path d="M362.666667 588.8m-51.2 0a51.2 51.2 0 1 0 102.4 0 51.2 51.2 0 1 0-102.4 0Z" p-id="1888" fill="#1296db"></path><path d="M661.333333 588.8m-51.2 0a51.2 51.2 0 1 0 102.4 0 51.2 51.2 0 1 0-102.4 0Z" p-id="1889" fill="#1296db"></path><path d="M426.666667 789.333333h170.666666c25.6 0 42.666667-17.066667 42.666667-42.666666s-17.066667-42.666667-42.666667-42.666667h-170.666666c-25.6 0-42.666667 17.066667-42.666667 42.666667s17.066667 42.666667 42.666667 42.666666zM981.333333 533.333333c-25.6 0-42.666667 17.066667-42.666666 42.666667V640c0 25.6 17.066667 42.666667 42.666666 42.666667s42.666667-17.066667 42.666667-42.666667v-64c0-25.6-17.066667-42.666667-42.666667-42.666667z" p-id="1890" fill="#1296db"></path><path d="M422.4 917.333333c-132.266667-12.8-230.4-123.733333-230.4-256 0-140.8 115.2-256 256-256h128c132.266667 0 247.466667 102.4 256 238.933334 0 25.6 21.333333 42.666667 46.933333 38.4 25.6 0 42.666667-21.333333 38.4-46.933334-12.8-179.2-162.133333-315.733333-341.333333-315.733333H554.666667V226.133333c38.4-17.066667 64-55.466667 64-98.133333 0-59.733333-46.933333-106.666667-106.666667-106.666667S405.333333 68.266667 405.333333 128c0 42.666667 25.6 81.066667 64 98.133333v93.866667h-21.333333c-187.733333 0-341.333333 153.6-341.333333 341.333333 0 174.933333 132.266667 320 302.933333 341.333334h4.266667c21.333333 0 38.4-17.066667 42.666666-38.4 4.266667-25.6-12.8-46.933333-34.133333-46.933334z m89.6-810.666666c12.8 0 21.333333 8.533333 21.333333 21.333333s-8.533333 21.333333-21.333333 21.333333-21.333333-8.533333-21.333333-21.333333 8.533333-21.333333 21.333333-21.333333zM981.333333 917.333333h-384c-25.6 0-42.666667 17.066667-42.666666 42.666667s17.066667 42.666667 42.666666 42.666667h384c25.6 0 42.666667-17.066667 42.666667-42.666667s-17.066667-42.666667-42.666667-42.666667z" p-id="1891" fill="#1296db"></path><path d="M981.333333 746.666667h-213.333333c-25.6 0-42.666667 17.066667-42.666667 42.666666s17.066667 42.666667 42.666667 42.666667h213.333333c25.6 0 42.666667-17.066667 42.666667-42.666667s-17.066667-42.666667-42.666667-42.666666z" p-id="1892" fill="#1296db"></path></svg>